<?xml version="1.0" encoding="utf-8"?>
<!-- Generator: Adobe Illustrator 21.1.0, SVG Export Plug-In . SVG Version: 6.00 Build 0)  -->
<svg version="1.1" id="Layer_1" xmlns="http://www.w3.org/2000/svg" xmlns:xlink="http://www.w3.org/1999/xlink" x="0px" y="0px"
	 viewBox="0 0 800 600" style="enable-background:new 0 0 800 600;" xml:space="preserve">
<style type="text/css">
	.st0{fill:url(#SVGID_1_);}
	.st1{fill:url(#SVGID_2_);}
	.st2{fill:url(#SVGID_3_);}
	.st3{fill:url(#SVGID_4_);}
	.st4{fill:url(#SVGID_5_);}
	.st5{fill:url(#SVGID_6_);}
	.st6{fill:url(#SVGID_7_);}
</style>
<g>
	<linearGradient id="SVGID_1_" gradientUnits="userSpaceOnUse" x1="422.3469" y1="306.2833" x2="514.3333" y2="306.2833">
		<stop  offset="0.2137" style="stop-color:#8C3434"/>
		<stop  offset="1" style="stop-color:#2E002E"/>
	</linearGradient>
	<polygon class="st0" points="448,328.7 448,328.7 448,328.7 422.3,356.9 487.2,356.2 514.3,255.7 	"/>
	<linearGradient id="SVGID_2_" gradientUnits="userSpaceOnUse" x1="384.6667" y1="305.9259" x2="687.3333" y2="305.9259">
		<stop  offset="0.3579" style="stop-color:#D95050"/>
		<stop  offset="0.5562" style="stop-color:#7A007A"/>
	</linearGradient>
	<polygon class="st1" points="517.3,255.7 490.2,356.2 537.3,355.7 	"/>
	<linearGradient id="SVGID_3_" gradientUnits="userSpaceOnUse" x1="355.5012" y1="450.4581" x2="435.3333" y2="450.4581">
		<stop  offset="0" style="stop-color:#8C3434"/>
		<stop  offset="1" style="stop-color:#2E002E"/>
	</linearGradient>
	<polygon class="st2" points="355.5,360.6 368.3,389.6 435.3,540.7 387.6,360.2 	"/>
	<linearGradient id="SVGID_4_" gradientUnits="userSpaceOnUse" x1="317" y1="218.1248" x2="447.9856" y2="218.1248">
		<stop  offset="0" style="stop-color:#D95050"/>
		<stop  offset="1" style="stop-color:#7A007A"/>
	</linearGradient>
	<polygon class="st3" points="448,328.7 317,79 354.4,220.3 377.4,194.1 354.4,220.3 390.6,357.2 422.3,356.9 	"/>
	<linearGradient id="SVGID_5_" gradientUnits="userSpaceOnUse" x1="216.6667" y1="219" x2="519.3334" y2="219">
		<stop  offset="0.12" style="stop-color:#C04848"/>
		<stop  offset="0.7808" style="stop-color:#480048"/>
	</linearGradient>
	<polygon class="st4" points="314,79 228.7,359 351.4,220.3 	"/>
	<linearGradient id="SVGID_6_" gradientUnits="userSpaceOnUse" x1="228.6667" y1="289.6447" x2="387.6067" y2="289.6447">
		<stop  offset="0.2978" style="stop-color:#D95050"/>
		<stop  offset="1" style="stop-color:#7A007A"/>
	</linearGradient>
	<polygon class="st5" points="387.6,357.2 351.4,220.3 228.7,359 355.5,357.6 	"/>
	<linearGradient id="SVGID_7_" gradientUnits="userSpaceOnUse" x1="231.6667" y1="446.9259" x2="534.3333" y2="446.9259">
		<stop  offset="0" style="stop-color:#C04848"/>
		<stop  offset="1" style="stop-color:#480048"/>
	</linearGradient>
	<polygon class="st6" points="390.6,357.2 438.3,537.7 487.2,356.2 422.3,356.9 	"/>
</g>
</svg>
